<svg xmlns="http://www.w3.org/2000/svg" xmlns:xlink="http://www.w3.org/1999/xlink" width="500" zoomAndPan="magnify" viewBox="0 0 375 374.999991" height="500" preserveAspectRatio="xMidYMid meet" version="1.0"><defs><g/><clipPath id="8263f8b27b"><path d="M 23 56 L 357 56 L 357 297 L 23 297 Z M 23 56 " clip-rule="nonzero"/></clipPath><clipPath id="ed4159b61b"><path d="M -11.113281 215.960938 L 235.738281 -7.535156 L 386.25 158.699219 L 139.394531 382.199219 Z M -11.113281 215.960938 " clip-rule="nonzero"/></clipPath><clipPath id="049be46896"><path d="M 139.496094 382.3125 L 386.351562 158.8125 L 235.84375 -7.421875 L -11.011719 216.074219 Z M 139.496094 382.3125 " clip-rule="nonzero"/></clipPath><clipPath id="3ca334b1b3"><path d="M 344.828125 123.753906 C 361.460938 145.464844 359.351562 176.683594 340.117188 196.054688 C 325.292969 211.074219 304.269531 215.71875 285.609375 210.410156 C 276.320312 207.804688 266.503906 212.074219 261.703125 220.503906 C 258.023438 227.035156 253.148438 233.226562 247.289062 238.53125 C 230.109375 254.085938 207.535156 259.957031 186.175781 256.378906 C 173.785156 254.273438 161.410156 259.4375 153.558594 269.210938 C 150.175781 273.519531 146.152344 277.515625 141.691406 281.023438 C 112.773438 303.828125 70.859375 301.09375 45.03125 274.917969 C 15.644531 245.207031 17.273438 197.367188 47.925781 169.613281 C 60.617188 158.121094 76.214844 151.996094 91.929688 150.914062 C 107.832031 149.839844 120.5625 137.605469 122.1875 121.742188 C 124.128906 103.285156 133.035156 85.453125 148.773438 72.621094 C 177.726562 49.074219 220.589844 51.480469 246.675781 78.136719 C 249.691406 81.269531 252.335938 84.382812 254.773438 87.859375 C 262.863281 99.542969 276.742188 105.453125 290.761719 102.886719 C 310.335938 99.199219 331.519531 106.308594 344.828125 123.753906 Z M 344.828125 123.753906 " clip-rule="nonzero"/></clipPath><clipPath id="b6f4a6fd89"><path d="M 154 269 L 186 269 L 186 301 L 154 301 Z M 154 269 " clip-rule="nonzero"/></clipPath><clipPath id="401d2f876b"><path d="M -11.113281 215.960938 L 235.738281 -7.535156 L 386.25 158.699219 L 139.394531 382.199219 Z M -11.113281 215.960938 " clip-rule="nonzero"/></clipPath><clipPath id="8a5a8896b9"><path d="M 139.496094 382.3125 L 386.351562 158.8125 L 235.84375 -7.421875 L -11.011719 216.074219 Z M 139.496094 382.3125 " clip-rule="nonzero"/></clipPath><clipPath id="6a01857205"><path d="M 181.550781 274.425781 C 180.859375 273.660156 180.101562 272.972656 179.273438 272.359375 C 178.449219 271.746094 177.570312 271.21875 176.640625 270.777344 C 175.710938 270.339844 174.746094 269.992188 173.75 269.742188 C 172.75 269.492188 171.738281 269.339844 170.710938 269.289062 C 169.683594 269.238281 168.660156 269.289062 167.640625 269.4375 C 166.625 269.589844 165.628906 269.839844 164.660156 270.183594 C 163.691406 270.53125 162.765625 270.96875 161.882812 271.496094 C 161 272.023438 160.175781 272.632812 159.414062 273.324219 C 158.652344 274.015625 157.964844 274.773438 157.351562 275.601562 C 156.738281 276.425781 156.210938 277.304688 155.769531 278.234375 C 155.328125 279.164062 154.984375 280.128906 154.734375 281.125 C 154.480469 282.125 154.332031 283.136719 154.28125 284.164062 C 154.230469 285.191406 154.277344 286.214844 154.429688 287.234375 C 154.578125 288.25 154.828125 289.246094 155.175781 290.214844 C 155.519531 291.183594 155.957031 292.109375 156.488281 292.992188 C 157.015625 293.875 157.625 294.699219 158.316406 295.460938 C 159.007812 296.222656 159.765625 296.910156 160.589844 297.523438 C 161.417969 298.136719 162.292969 298.664062 163.226562 299.105469 C 164.15625 299.546875 165.117188 299.890625 166.117188 300.140625 C 167.113281 300.390625 168.128906 300.542969 169.15625 300.59375 C 170.183594 300.644531 171.207031 300.59375 172.222656 300.445312 C 173.242188 300.292969 174.234375 300.046875 175.203125 299.699219 C 176.171875 299.355469 177.097656 298.917969 177.980469 298.386719 C 178.863281 297.859375 179.6875 297.25 180.449219 296.558594 C 181.214844 295.867188 181.902344 295.109375 182.515625 294.285156 C 183.128906 293.457031 183.65625 292.578125 184.09375 291.648438 C 184.535156 290.71875 184.882812 289.757812 185.132812 288.757812 C 185.382812 287.761719 185.535156 286.746094 185.585938 285.71875 C 185.636719 284.691406 185.585938 283.667969 185.433594 282.652344 C 185.285156 281.632812 185.035156 280.640625 184.691406 279.671875 C 184.34375 278.703125 183.90625 277.773438 183.378906 276.890625 C 182.851562 276.007812 182.242188 275.1875 181.550781 274.425781 Z M 181.550781 274.425781 " clip-rule="nonzero"/></clipPath><clipPath id="5c85517b02"><path d="M 252 249 L 272 249 L 272 269 L 252 269 Z M 252 249 " clip-rule="nonzero"/></clipPath><clipPath id="19fc20b237"><path d="M -11.113281 215.960938 L 235.738281 -7.535156 L 386.25 158.699219 L 139.394531 382.199219 Z M -11.113281 215.960938 " clip-rule="nonzero"/></clipPath><clipPath id="953a157830"><path d="M 139.496094 382.3125 L 386.351562 158.8125 L 235.84375 -7.421875 L -11.011719 216.074219 Z M 139.496094 382.3125 " clip-rule="nonzero"/></clipPath><clipPath id="681ad32f82"><path d="M 268.683594 252.738281 C 268.269531 252.28125 267.816406 251.871094 267.324219 251.507812 C 266.832031 251.140625 266.308594 250.824219 265.753906 250.5625 C 265.199219 250.300781 264.621094 250.09375 264.027344 249.945312 C 263.433594 249.796875 262.828125 249.707031 262.214844 249.675781 C 261.601562 249.644531 260.992188 249.675781 260.382812 249.765625 C 259.777344 249.855469 259.183594 250 258.605469 250.207031 C 258.027344 250.414062 257.476562 250.675781 256.949219 250.992188 C 256.421875 251.304688 255.929688 251.671875 255.476562 252.082031 C 255.019531 252.496094 254.609375 252.945312 254.242188 253.441406 C 253.878906 253.933594 253.5625 254.457031 253.300781 255.011719 C 253.039062 255.566406 252.832031 256.140625 252.683594 256.738281 C 252.53125 257.332031 252.441406 257.9375 252.414062 258.550781 C 252.382812 259.164062 252.410156 259.773438 252.5 260.378906 C 252.589844 260.988281 252.738281 261.582031 252.945312 262.160156 C 253.152344 262.738281 253.414062 263.289062 253.726562 263.816406 C 254.042969 264.34375 254.40625 264.832031 254.820312 265.289062 C 255.230469 265.742188 255.683594 266.15625 256.175781 266.519531 C 256.667969 266.886719 257.195312 267.199219 257.75 267.464844 C 258.304688 267.726562 258.878906 267.933594 259.472656 268.082031 C 260.070312 268.230469 260.675781 268.320312 261.285156 268.351562 C 261.898438 268.382812 262.511719 268.351562 263.117188 268.261719 C 263.726562 268.171875 264.316406 268.023438 264.894531 267.820312 C 265.472656 267.613281 266.027344 267.351562 266.554688 267.035156 C 267.082031 266.71875 267.570312 266.355469 268.027344 265.945312 C 268.480469 265.53125 268.890625 265.082031 269.257812 264.585938 C 269.625 264.09375 269.9375 263.570312 270.199219 263.015625 C 270.464844 262.460938 270.671875 261.886719 270.820312 261.289062 C 270.96875 260.695312 271.058594 260.089844 271.089844 259.476562 C 271.121094 258.863281 271.089844 258.253906 271 257.644531 C 270.910156 257.039062 270.761719 256.445312 270.554688 255.867188 C 270.347656 255.289062 270.089844 254.738281 269.773438 254.210938 C 269.457031 253.683594 269.09375 253.191406 268.683594 252.738281 Z M 268.683594 252.738281 " clip-rule="nonzero"/></clipPath><clipPath id="7ccf785739"><path d="M 268 53 L 299 53 L 299 83 L 268 83 Z M 268 53 " clip-rule="nonzero"/></clipPath><clipPath id="e653cce37d"><path d="M -11.113281 215.960938 L 235.738281 -7.535156 L 386.25 158.699219 L 139.394531 382.199219 Z M -11.113281 215.960938 " clip-rule="nonzero"/></clipPath><clipPath id="a803750d74"><path d="M 139.496094 382.3125 L 386.351562 158.8125 L 235.84375 -7.421875 L -11.011719 216.074219 Z M 139.496094 382.3125 " clip-rule="nonzero"/></clipPath><clipPath id="323548d54a"><path d="M 294.652344 58.328125 C 294 57.609375 293.289062 56.960938 292.511719 56.386719 C 291.730469 55.808594 290.90625 55.3125 290.03125 54.898438 C 289.15625 54.484375 288.25 54.15625 287.308594 53.921875 C 286.371094 53.6875 285.417969 53.542969 284.449219 53.496094 C 283.480469 53.449219 282.519531 53.496094 281.5625 53.636719 C 280.601562 53.777344 279.667969 54.011719 278.753906 54.335938 C 277.84375 54.664062 276.972656 55.074219 276.140625 55.570312 C 275.308594 56.070312 274.535156 56.644531 273.816406 57.292969 C 273.101562 57.945312 272.453125 58.65625 271.875 59.433594 C 271.296875 60.210938 270.800781 61.039062 270.386719 61.914062 C 269.972656 62.789062 269.648438 63.695312 269.410156 64.636719 C 269.175781 65.574219 269.035156 66.527344 268.984375 67.496094 C 268.9375 68.464844 268.984375 69.425781 269.125 70.382812 C 269.269531 71.34375 269.5 72.277344 269.828125 73.1875 C 270.152344 74.101562 270.566406 74.972656 271.0625 75.804688 C 271.558594 76.632812 272.132812 77.410156 272.785156 78.125 C 273.433594 78.84375 274.148438 79.492188 274.925781 80.070312 C 275.703125 80.648438 276.527344 81.144531 277.402344 81.558594 C 278.28125 81.972656 279.1875 82.296875 280.125 82.53125 C 281.066406 82.769531 282.019531 82.910156 282.984375 82.957031 C 283.953125 83.007812 284.914062 82.960938 285.875 82.816406 C 286.832031 82.675781 287.765625 82.441406 288.679688 82.117188 C 289.589844 81.792969 290.460938 81.378906 291.292969 80.882812 C 292.125 80.386719 292.898438 79.8125 293.617188 79.160156 C 294.335938 78.511719 294.980469 77.796875 295.558594 77.019531 C 296.136719 76.242188 296.632812 75.414062 297.046875 74.539062 C 297.460938 73.664062 297.789062 72.757812 298.023438 71.820312 C 298.257812 70.878906 298.402344 69.925781 298.449219 68.957031 C 298.496094 67.992188 298.449219 67.027344 298.308594 66.070312 C 298.167969 65.113281 297.933594 64.175781 297.605469 63.265625 C 297.28125 62.355469 296.871094 61.480469 296.371094 60.652344 C 295.875 59.820312 295.300781 59.046875 294.652344 58.328125 Z M 294.652344 58.328125 " clip-rule="nonzero"/></clipPath></defs><rect x="-37.5" width="450" fill="#ffffff" y="-37.499999" height="449.999989" fill-opacity="1"/><rect x="-37.5" width="450" fill="#4b5ae4" y="-37.499999" height="449.999989" fill-opacity="1"/><g clip-path="url(#8263f8b27b)"><g clip-path="url(#ed4159b61b)"><g clip-path="url(#049be46896)"><g clip-path="url(#3ca334b1b3)"><path fill="#ffde59" d="M 171.425781 475.886719 L -111.105469 163.832031 L 205.683594 -122.988281 L 488.214844 189.070312 Z M 171.425781 475.886719 " fill-opacity="1" fill-rule="nonzero"/></g></g></g></g><g clip-path="url(#b6f4a6fd89)"><g clip-path="url(#401d2f876b)"><g clip-path="url(#8a5a8896b9)"><g clip-path="url(#6a01857205)"><path fill="#ffde59" d="M 168.375 316.269531 L 138.605469 283.386719 L 171.488281 253.613281 L 201.261719 286.496094 Z M 168.375 316.269531 " fill-opacity="1" fill-rule="nonzero"/></g></g></g></g><g clip-path="url(#5c85517b02)"><g clip-path="url(#19fc20b237)"><g clip-path="url(#953a157830)"><g clip-path="url(#681ad32f82)"><path fill="#ffde59" d="M 260.824219 277.707031 L 243.058594 258.085938 L 262.679688 240.320312 L 280.441406 259.941406 Z M 260.824219 277.707031 " fill-opacity="1" fill-rule="nonzero"/></g></g></g></g><g clip-path="url(#7ccf785739)"><g clip-path="url(#e653cce37d)"><g clip-path="url(#a803750d74)"><g clip-path="url(#323548d54a)"><path fill="#ffde59" d="M 282.253906 97.714844 L 254.230469 66.761719 L 285.179688 38.742188 L 313.203125 69.691406 Z M 282.253906 97.714844 " fill-opacity="1" fill-rule="nonzero"/></g></g></g></g><g fill="#4b5ae4" fill-opacity="1"><g transform="translate(61.593026, 270.561831)"><g><path d="M 18.140625 -8.765625 C 14.785156 -7.148438 11.410156 -6.660156 8.015625 -7.296875 C 4.628906 -7.941406 1.445312 -9.628906 -1.53125 -12.359375 C -4.519531 -15.097656 -7.140625 -18.796875 -9.390625 -23.453125 C -10.304688 -25.335938 -11.0625 -27.519531 -11.65625 -30 C -12.257812 -32.488281 -12.570312 -34.984375 -12.59375 -37.484375 C -12.613281 -39.984375 -12.242188 -42.21875 -11.484375 -44.1875 C -10.722656 -46.164062 -9.445312 -47.59375 -7.65625 -48.46875 C -5.757812 -49.382812 -3.882812 -49.457031 -2.03125 -48.6875 C -0.1875 -47.925781 1.207031 -46.5625 2.15625 -44.59375 C 2.644531 -43.582031 2.992188 -42.15625 3.203125 -40.3125 C 3.421875 -38.46875 3.6875 -36.519531 4 -34.46875 C 4.320312 -32.414062 4.890625 -30.550781 5.703125 -28.875 C 6.648438 -26.90625 7.609375 -25.671875 8.578125 -25.171875 C 9.546875 -24.679688 10.390625 -24.609375 11.109375 -24.953125 C 12.160156 -25.460938 12.648438 -26.347656 12.578125 -27.609375 C 12.503906 -28.878906 11.753906 -30.988281 10.328125 -33.9375 C 9.585938 -35.476562 8.78125 -37.128906 7.90625 -38.890625 C 7.039062 -40.648438 6.378906 -42.390625 5.921875 -44.109375 C 5.472656 -45.835938 5.476562 -47.4375 5.9375 -48.90625 C 6.394531 -50.375 7.570312 -51.5625 9.46875 -52.46875 C 11.363281 -53.382812 13.035156 -53.597656 14.484375 -53.109375 C 15.929688 -52.617188 17.195312 -51.6875 18.28125 -50.3125 C 19.363281 -48.945312 20.328125 -47.40625 21.171875 -45.6875 C 22.023438 -43.976562 22.828125 -42.34375 23.578125 -40.78125 C 25.097656 -37.632812 26.429688 -35.570312 27.578125 -34.59375 C 28.734375 -33.625 29.878906 -33.410156 31.015625 -33.953125 C 31.847656 -34.359375 32.265625 -35.144531 32.265625 -36.3125 C 32.273438 -37.488281 31.765625 -39.039062 30.734375 -40.96875 C 29.835938 -42.601562 28.710938 -44.117188 27.359375 -45.515625 C 26.015625 -46.921875 24.703125 -48.273438 23.421875 -49.578125 C 22.148438 -50.878906 21.195312 -52.179688 20.5625 -53.484375 C 19.570312 -55.535156 19.421875 -57.503906 20.109375 -59.390625 C 20.804688 -61.285156 22 -62.640625 23.6875 -63.453125 C 25.65625 -64.410156 27.664062 -64.582031 29.71875 -63.96875 C 31.78125 -63.351562 33.757812 -62.257812 35.65625 -60.6875 C 37.5625 -59.125 39.269531 -57.332031 40.78125 -55.3125 C 42.289062 -53.300781 43.503906 -51.351562 44.421875 -49.46875 C 46.671875 -44.8125 47.941406 -40.460938 48.234375 -36.421875 C 48.535156 -32.390625 47.890625 -28.859375 46.296875 -25.828125 C 44.703125 -22.804688 42.203125 -20.472656 38.796875 -18.828125 C 36.984375 -17.953125 35 -17.5 32.84375 -17.46875 C 30.6875 -17.4375 28.410156 -17.90625 26.015625 -18.875 C 25.296875 -16.394531 24.242188 -14.300781 22.859375 -12.59375 C 21.484375 -10.894531 19.910156 -9.617188 18.140625 -8.765625 Z M 18.140625 -8.765625 "/></g></g></g><g fill="#4b5ae4" fill-opacity="1"><g transform="translate(125.443138, 236.395371)"><g><path d="M 18.75 -17.546875 C 17.351562 -16.234375 15.765625 -14.9375 13.984375 -13.65625 C 12.210938 -12.382812 10.257812 -11.359375 8.125 -10.578125 C 5.988281 -9.796875 3.695312 -9.441406 1.25 -9.515625 C -1.1875 -9.597656 -3.757812 -10.335938 -6.46875 -11.734375 C -9.175781 -13.128906 -11.976562 -15.378906 -14.875 -18.484375 C -18.0625 -21.890625 -20.382812 -25.53125 -21.84375 -29.40625 C -23.300781 -33.28125 -23.632812 -37.148438 -22.84375 -41.015625 C -22.0625 -44.890625 -19.898438 -48.484375 -16.359375 -51.796875 C -13.804688 -54.191406 -11.507812 -55.921875 -9.46875 -56.984375 C -7.4375 -58.054688 -5.625 -58.664062 -4.03125 -58.8125 C -2.445312 -58.957031 -1.078125 -58.769531 0.078125 -58.25 C 1.234375 -57.738281 2.207031 -57.054688 3 -56.203125 C 3.832031 -55.316406 4.398438 -54.25 4.703125 -53 C 5.015625 -51.75 4.90625 -50.425781 4.375 -49.03125 C 3.820312 -47.695312 3.007812 -46.570312 1.9375 -45.65625 C 0.863281 -44.75 -0.078125 -43.914062 -0.890625 -43.15625 C -2.660156 -41.5 -3.753906 -39.882812 -4.171875 -38.3125 C -4.597656 -36.75 -4.398438 -35.128906 -3.578125 -33.453125 C -3.085938 -33.992188 -2.515625 -34.582031 -1.859375 -35.21875 C -1.203125 -35.863281 -0.515625 -36.519531 0.203125 -37.1875 C 1.597656 -38.5 2.957031 -39.722656 4.28125 -40.859375 C 5.613281 -42.003906 6.582031 -42.765625 7.1875 -43.140625 C 8.59375 -44.015625 9.929688 -44.390625 11.203125 -44.265625 C 12.472656 -44.140625 13.519531 -43.632812 14.34375 -42.75 C 15.144531 -41.894531 15.570312 -40.859375 15.625 -39.640625 C 15.6875 -38.421875 15.203125 -37.066406 14.171875 -35.578125 C 13.785156 -35.023438 12.941406 -34.09375 11.640625 -32.78125 C 10.335938 -31.476562 8.953125 -30.144531 7.484375 -28.78125 C 6.910156 -28.238281 6.34375 -27.71875 5.78125 -27.21875 C 5.21875 -26.726562 4.71875 -26.273438 4.28125 -25.859375 C 5.738281 -25.253906 7.234375 -25.109375 8.765625 -25.421875 C 10.296875 -25.734375 11.828125 -26.601562 13.359375 -28.03125 C 13.929688 -28.570312 14.707031 -29.410156 15.6875 -30.546875 C 16.675781 -31.691406 17.828125 -32.59375 19.140625 -33.25 C 21.253906 -34.269531 23.078125 -33.960938 24.609375 -32.328125 C 25.441406 -31.429688 25.914062 -30.320312 26.03125 -29 C 26.15625 -27.675781 25.664062 -26.082031 24.5625 -24.21875 C 23.457031 -22.351562 21.519531 -20.128906 18.75 -17.546875 Z M 18.75 -17.546875 "/></g></g></g><g fill="#4b5ae4" fill-opacity="1"><g transform="translate(168.322306, 200.557022)"><g><path d="M 24.703125 -14.890625 C 23.304688 -14.046875 21.929688 -13.71875 20.578125 -13.90625 C 19.234375 -14.101562 18.070312 -14.664062 17.09375 -15.59375 C 16.09375 -16.53125 15.132812 -17.660156 14.21875 -18.984375 C 13.300781 -20.316406 12.425781 -21.695312 11.59375 -23.125 C 10.757812 -24.5625 9.957031 -25.867188 9.1875 -27.046875 C 8.425781 -28.222656 7.726562 -29.109375 7.09375 -29.703125 C 6.46875 -30.304688 5.875 -30.441406 5.3125 -30.109375 C 4.507812 -29.617188 4.148438 -28.945312 4.234375 -28.09375 C 4.316406 -27.238281 4.6875 -26.257812 5.34375 -25.15625 C 6.007812 -24.0625 6.796875 -22.914062 7.703125 -21.71875 C 8.617188 -20.53125 9.535156 -19.351562 10.453125 -18.1875 C 11.367188 -17.03125 12.117188 -15.96875 12.703125 -15 C 13.910156 -13 14.289062 -11.347656 13.84375 -10.046875 C 13.394531 -8.753906 12.390625 -7.640625 10.828125 -6.703125 C 9.273438 -5.765625 7.515625 -5.585938 5.546875 -6.171875 C 3.585938 -6.753906 1.601562 -7.84375 -0.40625 -9.4375 C -2.425781 -11.03125 -4.359375 -12.90625 -6.203125 -15.0625 C -8.046875 -17.21875 -9.617188 -19.375 -10.921875 -21.53125 C -12.515625 -24.164062 -13.765625 -26.894531 -14.671875 -29.71875 C -15.585938 -32.550781 -16.046875 -35.300781 -16.046875 -37.96875 C -16.054688 -40.632812 -15.53125 -43.078125 -14.46875 -45.296875 C -13.40625 -47.515625 -11.675781 -49.347656 -9.28125 -50.796875 C -7.394531 -51.929688 -5.585938 -52.460938 -3.859375 -52.390625 C -2.128906 -52.328125 -0.523438 -51.894531 0.953125 -51.09375 C 2.441406 -50.300781 3.71875 -49.34375 4.78125 -48.21875 C 4.28125 -49.675781 4.015625 -51.238281 3.984375 -52.90625 C 3.953125 -54.582031 4.3125 -56.203125 5.0625 -57.765625 C 5.8125 -59.335938 7.109375 -60.675781 8.953125 -61.78125 C 11.992188 -63.613281 15.144531 -64.234375 18.40625 -63.640625 C 21.675781 -63.046875 24.863281 -61.4375 27.96875 -58.8125 C 31.070312 -56.195312 33.9375 -52.710938 36.5625 -48.359375 C 37.789062 -46.316406 38.863281 -44.03125 39.78125 -41.5 C 40.707031 -38.976562 41.347656 -36.5 41.703125 -34.0625 C 42.054688 -31.632812 42.019531 -29.460938 41.59375 -27.546875 C 41.164062 -25.628906 40.210938 -24.226562 38.734375 -23.34375 C 37.128906 -22.375 35.628906 -22.007812 34.234375 -22.25 C 32.835938 -22.5 31.535156 -23.625 30.328125 -25.625 C 29.742188 -26.59375 29.15625 -27.75 28.5625 -29.09375 C 27.96875 -30.445312 27.363281 -31.8125 26.75 -33.1875 C 26.132812 -34.5625 25.492188 -35.796875 24.828125 -36.890625 C 24.171875 -37.992188 23.488281 -38.785156 22.78125 -39.265625 C 22.082031 -39.753906 21.335938 -39.757812 20.546875 -39.28125 C 19.984375 -38.9375 19.804688 -38.335938 20.015625 -37.484375 C 20.234375 -36.640625 20.664062 -35.609375 21.3125 -34.390625 C 21.96875 -33.171875 22.722656 -31.847656 23.578125 -30.421875 C 24.429688 -29.003906 25.25 -27.578125 26.03125 -26.140625 C 26.820312 -24.710938 27.394531 -23.34375 27.75 -22.03125 C 28.144531 -20.75 28.101562 -19.457031 27.625 -18.15625 C 27.15625 -16.863281 26.179688 -15.773438 24.703125 -14.890625 Z M 24.703125 -14.890625 "/></g></g></g><g fill="#4b5ae4" fill-opacity="1"><g transform="translate(207.074902, 175.364723)"><g><path d="M 12.609375 -1.328125 C 9.410156 -0.953125 6.710938 -2.207031 4.515625 -5.09375 C 2.328125 -7.988281 0.769531 -11.945312 -0.15625 -16.96875 C -1.238281 -23.175781 -1.1875 -28.78125 0 -33.78125 C 1.175781 -38.789062 3.367188 -42.84375 6.578125 -45.9375 C 9.796875 -49.039062 13.835938 -50.875 18.703125 -51.4375 C 23.609375 -52.007812 27.96875 -51.15625 31.78125 -48.875 C 35.59375 -46.59375 38.644531 -43.160156 40.9375 -38.578125 C 43.226562 -34.003906 44.53125 -28.546875 44.84375 -22.203125 C 45.125 -16.960938 44.519531 -12.726562 43.03125 -9.5 C 41.550781 -6.28125 39.210938 -4.488281 36.015625 -4.125 C 34.210938 -3.914062 32.785156 -4.085938 31.734375 -4.640625 C 30.691406 -5.191406 29.910156 -5.96875 29.390625 -6.96875 C 28.867188 -7.96875 28.546875 -9.007812 28.421875 -10.09375 C 28.296875 -11.1875 28.253906 -12.140625 28.296875 -12.953125 C 26.828125 -12.722656 25.09375 -12.484375 23.09375 -12.234375 C 21.101562 -11.984375 19.429688 -11.828125 18.078125 -11.765625 C 18.316406 -10.984375 18.5 -10.046875 18.625 -8.953125 C 18.75 -7.867188 18.675781 -6.78125 18.40625 -5.6875 C 18.132812 -4.59375 17.550781 -3.644531 16.65625 -2.84375 C 15.757812 -2.039062 14.410156 -1.535156 12.609375 -1.328125 Z M 16.15625 -24.078125 C 19.8125 -24.640625 23.472656 -25.066406 27.140625 -25.359375 C 27.179688 -27.003906 26.976562 -28.550781 26.53125 -30 C 26.082031 -31.457031 25.363281 -32.59375 24.375 -33.40625 C 23.382812 -34.226562 22.082031 -34.546875 20.46875 -34.359375 C 18.84375 -34.171875 17.65625 -33.566406 16.90625 -32.546875 C 16.15625 -31.523438 15.738281 -30.265625 15.65625 -28.765625 C 15.570312 -27.265625 15.738281 -25.703125 16.15625 -24.078125 Z M 16.15625 -24.078125 "/></g></g></g><g fill="#4b5ae4" fill-opacity="1"><g transform="translate(245.078441, 169.363043)"><g><path d="M 9.28125 2.4375 C 7.382812 1.945312 6.0625 1.007812 5.3125 -0.375 C 4.570312 -1.757812 4.210938 -3.421875 4.234375 -5.359375 C 4.265625 -7.304688 4.523438 -9.394531 5.015625 -11.625 C 5.503906 -13.851562 6.039062 -16.078125 6.625 -18.296875 C 6.914062 -19.367188 7.300781 -20.769531 7.78125 -22.5 C 8.257812 -24.238281 8.75 -26.019531 9.25 -27.84375 C 9.757812 -29.664062 10.222656 -31.285156 10.640625 -32.703125 C 11.066406 -34.117188 11.375 -35.085938 11.5625 -35.609375 C 12.5 -38.835938 13.878906 -41.34375 15.703125 -43.125 C 17.523438 -44.914062 19.679688 -45.484375 22.171875 -44.828125 C 25.015625 -44.078125 26.640625 -42.332031 27.046875 -39.59375 C 27.460938 -36.863281 27.0625 -33.195312 25.84375 -28.59375 C 25.71875 -28.082031 25.539062 -27.398438 25.3125 -26.546875 C 26.59375 -27.898438 28.097656 -29.335938 29.828125 -30.859375 C 31.554688 -32.390625 33.382812 -33.789062 35.3125 -35.0625 C 37.238281 -36.34375 39.175781 -37.296875 41.125 -37.921875 C 43.070312 -38.546875 44.898438 -38.628906 46.609375 -38.171875 C 48.734375 -37.617188 50.269531 -36.351562 51.21875 -34.375 C 52.175781 -32.40625 52.347656 -30.253906 51.734375 -27.921875 C 51.171875 -25.796875 50.003906 -23.890625 48.234375 -22.203125 C 46.460938 -20.523438 44.28125 -19.160156 41.6875 -18.109375 C 39.101562 -17.054688 36.226562 -16.394531 33.0625 -16.125 C 34.53125 -14.90625 35.976562 -13.539062 37.40625 -12.03125 C 38.84375 -10.53125 40.101562 -8.945312 41.1875 -7.28125 C 42.28125 -5.613281 43.054688 -3.921875 43.515625 -2.203125 C 43.972656 -0.492188 43.976562 1.210938 43.53125 2.921875 C 43.03125 4.828125 42.253906 6.265625 41.203125 7.234375 C 40.148438 8.210938 38.960938 8.816406 37.640625 9.046875 C 36.328125 9.285156 35.015625 9.234375 33.703125 8.890625 C 31.410156 8.285156 29.460938 6.972656 27.859375 4.953125 C 26.265625 2.941406 24.9375 0.515625 23.875 -2.328125 C 22.820312 -5.171875 21.921875 -8.082031 21.171875 -11.0625 C 20.640625 -9.070312 20.050781 -7.175781 19.40625 -5.375 C 18.769531 -3.570312 18.003906 -1.988281 17.109375 -0.625 C 16.210938 0.738281 15.132812 1.707031 13.875 2.28125 C 12.613281 2.863281 11.082031 2.914062 9.28125 2.4375 Z M 9.28125 2.4375 "/></g></g></g><g fill="#4b5ae4" fill-opacity="1"><g transform="translate(279.159753, 176.776383)"><g><path d="M 21.125 14.609375 C 19.550781 13.515625 17.953125 12.238281 16.328125 10.78125 C 14.710938 9.320312 13.289062 7.628906 12.0625 5.703125 C 10.832031 3.773438 10 1.613281 9.5625 -0.78125 C 9.125 -3.1875 9.296875 -5.863281 10.078125 -8.8125 C 10.867188 -11.757812 12.472656 -14.972656 14.890625 -18.453125 C 17.546875 -22.296875 20.613281 -25.34375 24.09375 -27.59375 C 27.582031 -29.84375 31.296875 -30.988281 35.234375 -31.03125 C 39.179688 -31.082031 43.15625 -29.734375 47.15625 -26.984375 C 50.03125 -24.984375 52.207031 -23.101562 53.6875 -21.34375 C 55.164062 -19.59375 56.144531 -17.953125 56.625 -16.421875 C 57.101562 -14.898438 57.207031 -13.519531 56.9375 -12.28125 C 56.675781 -11.039062 56.21875 -9.941406 55.5625 -8.984375 C 54.875 -7.992188 53.953125 -7.21875 52.796875 -6.65625 C 51.640625 -6.09375 50.320312 -5.921875 48.84375 -6.140625 C 47.425781 -6.398438 46.160156 -6.953125 45.046875 -7.796875 C 43.929688 -8.640625 42.910156 -9.378906 41.984375 -10.015625 C 39.992188 -11.398438 38.1875 -12.132812 36.5625 -12.21875 C 34.9375 -12.300781 33.390625 -11.765625 31.921875 -10.609375 C 32.566406 -10.222656 33.269531 -9.78125 34.03125 -9.28125 C 34.789062 -8.78125 35.570312 -8.25 36.375 -7.6875 C 37.945312 -6.601562 39.4375 -5.535156 40.84375 -4.484375 C 42.25 -3.441406 43.195312 -2.660156 43.6875 -2.140625 C 44.84375 -0.941406 45.492188 0.285156 45.640625 1.546875 C 45.785156 2.816406 45.515625 3.945312 44.828125 4.9375 C 44.160156 5.894531 43.234375 6.535156 42.046875 6.859375 C 40.867188 7.179688 39.445312 6.988281 37.78125 6.28125 C 37.164062 6.03125 36.078125 5.40625 34.515625 4.40625 C 32.953125 3.414062 31.347656 2.347656 29.703125 1.203125 C 29.046875 0.753906 28.421875 0.3125 27.828125 -0.125 C 27.234375 -0.5625 26.6875 -0.953125 26.1875 -1.296875 C 25.894531 0.253906 26.0625 1.742188 26.6875 3.171875 C 27.320312 4.609375 28.503906 5.921875 30.234375 7.109375 C 30.878906 7.554688 31.859375 8.132812 33.171875 8.84375 C 34.492188 9.5625 35.617188 10.492188 36.546875 11.640625 C 37.992188 13.484375 38.078125 15.328125 36.796875 17.171875 C 36.109375 18.171875 35.128906 18.875 33.859375 19.28125 C 32.585938 19.6875 30.925781 19.546875 28.875 18.859375 C 26.820312 18.171875 24.238281 16.753906 21.125 14.609375 Z M 21.125 14.609375 "/></g></g></g><g fill="#4b5ae4" fill-opacity="1"><g transform="translate(188.307516, 245.428571)"><g><path d="M 6.703125 -0.4375 L 2.1875 -4.828125 L 2.484375 -0.15625 L 1.140625 -0.078125 L 0.484375 -10.34375 L 1.828125 -10.421875 L 2.125 -5.65625 L 6.046875 -10.703125 L 7.75 -10.8125 L 3.421875 -5.359375 L 8.453125 -0.546875 Z M 6.703125 -0.4375 "/></g></g></g><g fill="#4b5ae4" fill-opacity="1"><g transform="translate(197.636365, 244.700603)"><g><path d="M 0.453125 -9.5625 C 0.203125 -9.519531 -0.0195312 -9.570312 -0.21875 -9.71875 C -0.425781 -9.875 -0.550781 -10.082031 -0.59375 -10.34375 C -0.625 -10.59375 -0.5625 -10.8125 -0.40625 -11 C -0.257812 -11.195312 -0.0625 -11.316406 0.1875 -11.359375 C 0.4375 -11.390625 0.65625 -11.332031 0.84375 -11.1875 C 1.039062 -11.039062 1.15625 -10.84375 1.1875 -10.59375 C 1.226562 -10.332031 1.175781 -10.101562 1.03125 -9.90625 C 0.894531 -9.707031 0.703125 -9.59375 0.453125 -9.5625 Z M 1.28125 -8.359375 L 2.453125 -0.359375 L 1.125 -0.171875 L -0.046875 -8.171875 Z M 1.28125 -8.359375 "/></g></g></g><g fill="#4b5ae4" fill-opacity="1"><g transform="translate(201.800733, 244.20743)"><g><path d="M -0.3125 -4.109375 C -0.507812 -4.910156 -0.515625 -5.65625 -0.328125 -6.34375 C -0.148438 -7.03125 0.175781 -7.609375 0.65625 -8.078125 C 1.144531 -8.546875 1.742188 -8.863281 2.453125 -9.03125 C 3.066406 -9.175781 3.671875 -9.164062 4.265625 -9 C 4.859375 -8.84375 5.351562 -8.570312 5.75 -8.1875 L 4.75 -12.359375 L 6.0625 -12.671875 L 8.59375 -2.046875 L 7.28125 -1.734375 L 6.9375 -3.203125 C 6.78125 -2.679688 6.484375 -2.207031 6.046875 -1.78125 C 5.609375 -1.363281 5.050781 -1.070312 4.375 -0.90625 C 3.675781 -0.738281 3 -0.753906 2.34375 -0.953125 C 1.695312 -1.160156 1.140625 -1.535156 0.671875 -2.078125 C 0.203125 -2.628906 -0.125 -3.304688 -0.3125 -4.109375 Z M 6.34375 -5.6875 C 6.195312 -6.269531 5.945312 -6.753906 5.59375 -7.140625 C 5.25 -7.523438 4.847656 -7.785156 4.390625 -7.921875 C 3.929688 -8.054688 3.460938 -8.066406 2.984375 -7.953125 C 2.492188 -7.835938 2.070312 -7.617188 1.71875 -7.296875 C 1.375 -6.972656 1.132812 -6.5625 1 -6.0625 C 0.863281 -5.5625 0.867188 -5.019531 1.015625 -4.4375 C 1.160156 -3.832031 1.40625 -3.332031 1.75 -2.9375 C 2.09375 -2.550781 2.492188 -2.285156 2.953125 -2.140625 C 3.410156 -2.003906 3.882812 -1.992188 4.375 -2.109375 C 4.851562 -2.222656 5.265625 -2.445312 5.609375 -2.78125 C 5.960938 -3.113281 6.207031 -3.53125 6.34375 -4.03125 C 6.488281 -4.539062 6.488281 -5.09375 6.34375 -5.6875 Z M 6.34375 -5.6875 "/></g></g></g><g fill="#4b5ae4" fill-opacity="1"><g transform="translate(212.132755, 241.646142)"><g><path d="M 3.8125 -1.234375 C 3.21875 -1.023438 2.65625 -0.9375 2.125 -0.96875 C 1.59375 -1 1.125 -1.144531 0.71875 -1.40625 C 0.320312 -1.664062 0.0234375 -2.019531 -0.171875 -2.46875 L 1.140625 -2.9375 C 1.328125 -2.570312 1.617188 -2.328125 2.015625 -2.203125 C 2.421875 -2.078125 2.882812 -2.109375 3.40625 -2.296875 C 3.882812 -2.460938 4.222656 -2.707031 4.421875 -3.03125 C 4.617188 -3.351562 4.660156 -3.675781 4.546875 -4 C 4.421875 -4.332031 4.179688 -4.523438 3.828125 -4.578125 C 3.472656 -4.628906 2.960938 -4.625 2.296875 -4.5625 C 1.671875 -4.5 1.15625 -4.476562 0.75 -4.5 C 0.34375 -4.519531 -0.0390625 -4.632812 -0.40625 -4.84375 C -0.769531 -5.050781 -1.039062 -5.398438 -1.21875 -5.890625 C -1.351562 -6.285156 -1.363281 -6.6875 -1.25 -7.09375 C -1.144531 -7.5 -0.910156 -7.875 -0.546875 -8.21875 C -0.191406 -8.5625 0.25 -8.832031 0.78125 -9.03125 C 1.625 -9.332031 2.382812 -9.363281 3.0625 -9.125 C 3.738281 -8.882812 4.226562 -8.398438 4.53125 -7.671875 L 3.265625 -7.203125 C 3.097656 -7.597656 2.828125 -7.863281 2.453125 -8 C 2.078125 -8.132812 1.644531 -8.113281 1.15625 -7.9375 C 0.6875 -7.769531 0.351562 -7.539062 0.15625 -7.25 C -0.03125 -6.957031 -0.0664062 -6.65625 0.046875 -6.34375 C 0.140625 -6.101562 0.296875 -5.929688 0.515625 -5.828125 C 0.734375 -5.722656 0.984375 -5.664062 1.265625 -5.65625 C 1.546875 -5.644531 1.921875 -5.660156 2.390625 -5.703125 C 2.992188 -5.753906 3.488281 -5.765625 3.875 -5.734375 C 4.269531 -5.710938 4.644531 -5.601562 5 -5.40625 C 5.351562 -5.21875 5.613281 -4.894531 5.78125 -4.4375 C 5.9375 -4.007812 5.957031 -3.585938 5.84375 -3.171875 C 5.726562 -2.753906 5.492188 -2.375 5.140625 -2.03125 C 4.796875 -1.695312 4.351562 -1.429688 3.8125 -1.234375 Z M 3.8125 -1.234375 "/></g></g></g><g fill="#4b5ae4" fill-opacity="1"><g transform="translate(219.811589, 238.772636)"><g/></g></g><g fill="#4b5ae4" fill-opacity="1"><g transform="translate(224.028574, 237.04434)"><g><path d="M -2 -4.765625 C -2.5 -5.640625 -2.753906 -6.535156 -2.765625 -7.453125 C -2.785156 -8.378906 -2.566406 -9.234375 -2.109375 -10.015625 C -1.648438 -10.796875 -1.007812 -11.421875 -0.1875 -11.890625 C 0.789062 -12.453125 1.769531 -12.707031 2.75 -12.65625 C 3.738281 -12.613281 4.648438 -12.253906 5.484375 -11.578125 L 4.09375 -10.78125 C 3.539062 -11.175781 2.945312 -11.382812 2.3125 -11.40625 C 1.675781 -11.425781 1.035156 -11.25 0.390625 -10.875 C -0.234375 -10.519531 -0.707031 -10.054688 -1.03125 -9.484375 C -1.351562 -8.910156 -1.503906 -8.273438 -1.484375 -7.578125 C -1.460938 -6.890625 -1.242188 -6.179688 -0.828125 -5.453125 C -0.421875 -4.753906 0.078125 -4.21875 0.671875 -3.84375 C 1.265625 -3.46875 1.890625 -3.28125 2.546875 -3.28125 C 3.203125 -3.28125 3.84375 -3.457031 4.46875 -3.8125 C 5.113281 -4.1875 5.585938 -4.644531 5.890625 -5.1875 C 6.191406 -5.738281 6.304688 -6.359375 6.234375 -7.046875 L 7.625 -7.84375 C 7.789062 -6.800781 7.644531 -5.835938 7.1875 -4.953125 C 6.738281 -4.078125 6.023438 -3.359375 5.046875 -2.796875 C 4.222656 -2.328125 3.359375 -2.085938 2.453125 -2.078125 C 1.546875 -2.066406 0.703125 -2.296875 -0.078125 -2.765625 C -0.859375 -3.234375 -1.5 -3.898438 -2 -4.765625 Z M -2 -4.765625 "/></g></g></g><g fill="#4b5ae4" fill-opacity="1"><g transform="translate(234.303611, 230.885622)"><g><path d="M -4.3125 -10.328125 L 2.03125 -1.4375 L 0.921875 -0.65625 L -5.421875 -9.546875 Z M -4.3125 -10.328125 "/></g></g></g><g fill="#4b5ae4" fill-opacity="1"><g transform="translate(237.762829, 228.544549)"><g><path d="M 1.109375 -11.53125 L 6.328125 -5.375 L 5.3125 -4.515625 L 4.546875 -5.421875 C 4.609375 -4.929688 4.539062 -4.445312 4.34375 -3.96875 C 4.144531 -3.5 3.832031 -3.085938 3.40625 -2.734375 C 2.9375 -2.328125 2.425781 -2.0625 1.875 -1.9375 C 1.332031 -1.8125 0.773438 -1.851562 0.203125 -2.0625 C -0.359375 -2.28125 -0.875 -2.671875 -1.34375 -3.234375 L -4.40625 -6.84375 L -3.390625 -7.703125 L -0.453125 -4.234375 C 0.0664062 -3.628906 0.613281 -3.289062 1.1875 -3.21875 C 1.769531 -3.15625 2.328125 -3.347656 2.859375 -3.796875 C 3.410156 -4.265625 3.703125 -4.800781 3.734375 -5.40625 C 3.765625 -6.019531 3.503906 -6.648438 2.953125 -7.296875 L 0.09375 -10.671875 Z M 1.109375 -11.53125 "/></g></g></g><g fill="#4b5ae4" fill-opacity="1"><g transform="translate(245.498974, 221.943921)"><g><path d="M -3.171875 -6.28125 C -3.335938 -6.800781 -3.351562 -7.359375 -3.21875 -7.953125 C -3.09375 -8.554688 -2.800781 -9.109375 -2.34375 -9.609375 C -1.851562 -10.148438 -1.285156 -10.515625 -0.640625 -10.703125 C 0.00390625 -10.898438 0.671875 -10.910156 1.359375 -10.734375 C 2.046875 -10.566406 2.695312 -10.203125 3.3125 -9.640625 C 3.914062 -9.085938 4.335938 -8.46875 4.578125 -7.78125 C 4.828125 -7.101562 4.882812 -6.429688 4.75 -5.765625 C 4.613281 -5.097656 4.300781 -4.5 3.8125 -3.96875 C 3.34375 -3.457031 2.816406 -3.109375 2.234375 -2.921875 C 1.648438 -2.742188 1.097656 -2.710938 0.578125 -2.828125 L 1.671875 -1.828125 L 0.765625 -0.84375 L -7.28125 -8.234375 L -6.375 -9.21875 Z M 2.390625 -8.625 C 1.941406 -9.039062 1.46875 -9.304688 0.96875 -9.421875 C 0.46875 -9.546875 -0.0078125 -9.53125 -0.46875 -9.375 C -0.925781 -9.226562 -1.320312 -8.972656 -1.65625 -8.609375 C -1.988281 -8.242188 -2.207031 -7.828125 -2.3125 -7.359375 C -2.414062 -6.898438 -2.382812 -6.421875 -2.21875 -5.921875 C -2.0625 -5.421875 -1.765625 -4.972656 -1.328125 -4.578125 C -0.867188 -4.160156 -0.382812 -3.890625 0.125 -3.765625 C 0.632812 -3.640625 1.117188 -3.644531 1.578125 -3.78125 C 2.035156 -3.925781 2.429688 -4.179688 2.765625 -4.546875 C 3.097656 -4.910156 3.316406 -5.328125 3.421875 -5.796875 C 3.535156 -6.273438 3.503906 -6.757812 3.328125 -7.25 C 3.160156 -7.75 2.847656 -8.207031 2.390625 -8.625 Z M 2.390625 -8.625 "/></g></g></g></svg>